<mxfile host="app.diagrams.net" agent="Mozilla/5.0 (Windows NT 10.0; Win64; x64) AppleWebKit/537.36 (KHTML, like Gecko) Chrome/134.0.0.0 Safari/537.36 Edg/134.0.0.0" version="26.1.0">
  <diagram name="第 1 页" id="6O1kq6QhIppo-Nqx2D0E">
    <mxGraphModel dx="1213" dy="815" grid="1" gridSize="10" guides="1" tooltips="1" connect="1" arrows="1" fold="1" page="1" pageScale="1" pageWidth="827" pageHeight="1169" math="0" shadow="0">
      <root>
        <mxCell id="0" />
        <mxCell id="1" parent="0" />
        <mxCell id="AYxrfLYcL7_NrFFGG1XF-4" value="&lt;div style=&quot;&quot;&gt;&lt;div style=&quot;text-align: left;&quot;&gt;&lt;b style=&quot;background-color: transparent; color: light-dark(rgb(51, 51, 51), rgb(193, 193, 193));&quot;&gt;&lt;font style=&quot;font-size: 14px;&quot; face=&quot;Times New Roman&quot;&gt;输入 :&lt;/font&gt;&lt;/b&gt;&lt;/div&gt;&lt;div style=&quot;text-align: left;&quot;&gt;&lt;font style=&quot;font-size: 14px;&quot; face=&quot;Times New Roman&quot;&gt;[scene state] : Monday - Current time is 7:10am&lt;/font&gt;&lt;/div&gt;&lt;div style=&quot;text-align: left;&quot;&gt;&lt;font style=&quot;font-size: 14px;&quot; face=&quot;Times New Roman&quot;&gt;[User&#39;s state] : {&lt;/font&gt;&lt;/div&gt;&lt;div style=&quot;&quot;&gt;&lt;div style=&quot;text-align: left;&quot;&gt;&lt;font style=&quot;font-size: 14px;&quot; face=&quot;Times New Roman&quot;&gt;name : Freddie&lt;/font&gt;&lt;/div&gt;&lt;div style=&quot;text-align: left;&quot;&gt;&lt;font style=&quot;font-size: 14px;&quot; face=&quot;Times New Roman&quot;&gt;age : 37&lt;/font&gt;&lt;/div&gt;&lt;div style=&quot;text-align: left;&quot;&gt;&lt;font style=&quot;font-size: 14px;&quot; face=&quot;Times New Roman&quot;&gt;gender : male&lt;/font&gt;&lt;/div&gt;&lt;div style=&quot;text-align: left;&quot;&gt;&lt;span style=&quot;font-family: &amp;quot;Times New Roman&amp;quot;; font-size: 14px;&quot;&gt;current location : table&lt;/span&gt;&lt;font style=&quot;font-size: 14px;&quot; face=&quot;Times New Roman&quot;&gt;&lt;/font&gt;&lt;/div&gt;&lt;div style=&quot;text-align: left;&quot;&gt;&lt;span style=&quot;font-family: &amp;quot;Times New Roman&amp;quot;; font-size: 14px;&quot;&gt;}&lt;/span&gt;&lt;/div&gt;&lt;div style=&quot;text-align: left;&quot;&gt;&lt;font style=&quot;font-size: 14px;&quot; face=&quot;Times New Roman&quot;&gt;[past actions] :&lt;span style=&quot;background-color: transparent; color: light-dark(rgb(51, 51, 51), rgb(193, 193, 193));&quot;&gt;go to table;&lt;/span&gt;&lt;span style=&quot;background-color: transparent; color: light-dark(rgb(51, 51, 51), rgb(193, 193, 193));&quot;&gt;eat breakfast……&lt;/span&gt;&lt;/font&gt;&lt;/div&gt;&lt;/div&gt;&lt;div style=&quot;text-align: left;&quot;&gt;&lt;font face=&quot;Times New Roman&quot;&gt;&lt;span style=&quot;font-size: 14px;&quot;&gt;[coversation] ：&lt;/span&gt;&lt;/font&gt;&lt;span style=&quot;font-size: 14px; font-family: &amp;quot;Times New Roman&amp;quot;; background-color: transparent; color: light-dark(rgb(51, 51, 51), rgb(193, 193, 193));&quot;&gt;I&#39;m sleepy and tired&lt;/span&gt;&lt;/div&gt;&lt;div style=&quot;text-align: left;&quot;&gt;&lt;span style=&quot;font-size: 14px; font-family: &amp;quot;Times New Roman&amp;quot;; background-color: transparent; color: light-dark(rgb(51, 51, 51), rgb(193, 193, 193));&quot;&gt;&lt;br&gt;&lt;/span&gt;&lt;/div&gt;&lt;div style=&quot;text-align: left;&quot;&gt;&lt;b style=&quot;color: light-dark(rgb(51, 51, 51), rgb(193, 193, 193)); background-color: transparent;&quot;&gt;&lt;font style=&quot;font-size: 14px;&quot; face=&quot;Times New Roman&quot;&gt;输出 :&lt;/font&gt;&lt;/b&gt;&lt;span style=&quot;font-size: 14px; font-family: &amp;quot;Times New Roman&amp;quot;; background-color: transparent; color: light-dark(rgb(51, 51, 51), rgb(193, 193, 193));&quot;&gt;&lt;/span&gt;&lt;/div&gt;&lt;div style=&quot;text-align: left;&quot;&gt;&lt;span style=&quot;color: light-dark(rgb(51, 51, 51), rgb(193, 193, 193)); background-color: transparent;&quot;&gt;&lt;font style=&quot;font-size: 14px;&quot; face=&quot;Times New Roman&quot;&gt;User‘s intention is having a coffee or get a rest&lt;/font&gt;&lt;/span&gt;&lt;/div&gt;&lt;div style=&quot;text-align: left;&quot;&gt;&lt;span style=&quot;font-size: 14px; font-family: &amp;quot;Times New Roman&amp;quot;; background-color: transparent; color: light-dark(rgb(51, 51, 51), rgb(193, 193, 193));&quot;&gt;&lt;br&gt;&lt;/span&gt;&lt;/div&gt;&lt;/div&gt;" style="rounded=1;arcSize=6;whiteSpace=wrap;html=1;fillColor=#f5f5f5;fontColor=#333333;strokeColor=#666666;" vertex="1" parent="1">
          <mxGeometry x="260" y="335" width="340" height="250" as="geometry" />
        </mxCell>
      </root>
    </mxGraphModel>
  </diagram>
</mxfile>
